<svg version="1.1" id="swi_logo" xmlns:x="&amp;ns_extend;" xmlns:i="&amp;ns_ai;" xmlns:graph="&amp;ns_graphs;" xmlns="http://www.w3.org/2000/svg" xmlns:xlink="http://www.w3.org/1999/xlink" x="0px" y="0px" viewBox="0 0 360 180" enable-background="new 0 0 360 180" xml:space="preserve">
<switch>
	<g i:extraneous="self">
		<g>
			<g>
				<g>
					<g>
						<path fill="#FFFFFF" d="M40.433,104.67c-4.66,0-7.841-1.425-7.841-1.425v-4.043c0,0,4.942,1.57,7.792,1.57
							c2.568,0,5.087-0.478,5.087-3.562c0-2.378-1.76-2.904-3.946-3.522l-2.042-0.569c-2.662-0.758-7.034-1.853-7.034-7.175
							c0-5.991,4.847-7.415,9.837-7.415c4.47,0,7.032,1.471,7.032,1.471v3.897c0,0-3.328-1.57-7.223-1.57
							c-3.137,0-5.13,0.62-5.13,3.33c0,2.331,1.802,2.899,3.989,3.471l2.474,0.664c2.9,0.757,6.607,2.471,6.607,7.222
							C50.033,103.055,45.707,104.67,40.433,104.67z"></path>
						<path fill="#FFFFFF" d="M66.924,104.67c-4.899,0-11.74-1.567-11.74-13.067c0-11.17,6.891-13.072,11.74-13.072
							c4.514,0,11.736,1.57,11.736,13.072C78.659,103.245,71.629,104.67,66.924,104.67z M66.924,82.048
							c-2.615,0-6.986,0.807-6.986,9.555c0,8.836,5.038,9.501,6.986,9.501c2.325,0,6.986-0.952,6.986-9.501
							C73.91,82.711,69.537,82.048,66.924,82.048z"></path>
						<path fill="#FFFFFF" d="M84.822,104.193V70.727h4.749v33.465H84.822z"></path>
						<path fill="#FFFFFF" d="M112.984,104.193l-0.476-3.28c0,0-2.897,3.757-8.218,3.757c-3.85,0-8.081-1.38-8.081-7.746
							c0-6.987,6.56-8.317,10.599-8.317h5.559v-2.189c0-3.279-1.95-4.038-5.229-4.038c-3.989,0-8.789,1.758-8.789,1.758v-3.849
							c0,0,4.274-1.758,9.455-1.758c5.513,0,9.315,2.042,9.315,8.65v17.012H112.984z M112.366,91.456l-4.517,0.049
							c-4.323,0.046-6.889,1.187-6.889,5.275c0,3.232,1.995,4.181,4.515,4.181c3.469,0,6.89-3.28,6.89-3.28V91.456z"></path>
						<path fill="#FFFFFF" d="M134.315,82.807c-2.808,0-4.993,3.041-4.993,3.041v18.344h-4.752v-25.19h3.755l0.619,3.471
							c0,0,1.567-3.943,5.892-3.943c2.425,0,3.421,0.665,3.421,0.665v4.328C138.258,83.523,136.734,82.807,134.315,82.807z"></path>
						<path fill="#FFFFFF" d="M175.762,104.193h-6.606l-3.899-13.4c-1.045-3.569-2.564-9.459-2.564-9.459s-1.617,5.939-2.618,9.41
							l-3.894,13.449h-6.56l-6.651-25.19h5.413l3.045,14.449c0.712,3.328,1.521,8.556,1.521,8.556s0.998-5.228,1.993-8.556
							l4.327-14.449h6.844l4.322,14.449c1.001,3.279,2.044,8.556,2.044,8.556s0.761-4.797,1.57-8.556l3.04-14.449h5.327
							L175.762,104.193z"></path>
						<path fill="#FFFFFF" d="M188.354,104.193V78.841h4.754v25.352H188.354z"></path>
						<path fill="#FFFFFF" d="M218.137,104.193V86.941c0-3.136-1.282-4.325-4.518-4.325c-4.23,0-8.317,3.186-8.317,3.186v18.391
							h-4.753v-25.19h3.661l0.95,3.566c0,0,4.183-4.038,9.554-4.038c4.654,0,8.173,2.042,8.173,8.46v17.202H218.137z"></path>
						<path fill="#FFFFFF" d="M247.556,104.193l-0.524-3.184c0,0-2.662,3.661-8.129,3.661c-3.942,0-10.457-1.761-10.457-13.067
							c0-11.457,8.036-13.072,11.412-13.072c4.512,0,6.651,2.565,6.651,2.565V70.727h4.752v33.465H247.556z M246.509,84.851
							c0,0-2.659-2.521-6.177-2.521c-3.469,0-7.132,1.379-7.132,9.273c0,8.311,3.709,9.31,6.657,9.31
							c3.419,0,6.651-2.898,6.651-2.898V84.851z"></path>
						<path fill="#FFFFFF" d="M265.886,104.67c-4.665,0-7.842-1.425-7.842-1.425v-4.043c0,0,4.944,1.57,7.791,1.57
							c2.571,0,5.086-0.478,5.086-3.562c0-2.378-1.756-2.904-3.942-3.522l-2.045-0.569c-2.659-0.758-7.032-1.853-7.032-7.175
							c0-5.991,4.846-7.415,9.837-7.415c4.467,0,7.033,1.471,7.033,1.471v3.897c0,0-3.329-1.57-7.224-1.57
							c-3.136,0-5.132,0.62-5.132,3.33c0,2.331,1.805,2.899,3.993,3.471l2.469,0.664c2.899,0.757,6.608,2.471,6.608,7.222
							C275.485,103.055,271.158,104.67,265.886,104.67z"></path>
						</g>
						<g>
							<path fill="#F99D1C" d="M297.631,63.661c0.22-0.059,0.433-0.118,0.652-0.181c4.816-1.358,9.501-3.239,14.156-5.187
							c4.557-1.907,9.065-4.197,13.025-7.42c4.064-3.306,7.333-7.589,9.137-12.9c0.254-0.739,0.774-1.805,0.823-2.616
							c-6.328,8.653-31.431,9.546-31.431,9.546l5.924-5.435c-23.814,0.045-40.433,10.154-48.047,15.56
							c9.744,1.045,18.564,5.172,25.47,11.387C290.739,65.363,294.207,64.603,297.631,63.661z"></path>
							<path fill="#F99D1C" d="M337,62.811c0,0-23.163-1.771-47.223,5.976c3.192,3.335,5.883,7.149,7.945,11.332
							C310.372,73.078,327.914,64.081,337,62.811z"></path>
							<path fill="#F99D1C" d="M299.307,83.735c1.469,3.777,2.454,7.796,2.863,11.982l22.05-22.678L299.307,83.735z"></path>
						</g>
					</g>
					<g>
						<path fill="#F99D1C" d="M310.889,94.85l-0.003-0.243c0-0.089-0.033-0.183-0.097-0.276c-0.05-0.075-0.124-0.127-0.22-0.127
						c-0.009,0-0.017,0.002-0.026,0.002c0.082-0.017,0.143-0.042,0.192-0.074c0.117-0.076,0.178-0.197,0.178-0.357
						c0-0.222-0.094-0.374-0.278-0.449c-0.101-0.043-0.254-0.064-0.466-0.064l-0.615,0.032l0.032,1.697l0.326-0.031l-0.033-0.623
						h0.233c0.149,0,0.252,0.015,0.309,0.048c0.096,0.056,0.142,0.173,0.142,0.354v0.132l0.047,0.119l0.327,0.001l-0.024-0.044
						L310.889,94.85z M309.912,93.526h0.216c0.157,0,0.272,0.02,0.341,0.058c0.063,0.036,0.095,0.108,0.095,0.218
						c0,0.114-0.05,0.19-0.153,0.232c-0.058,0.022-0.149,0.033-0.269,0.033l-0.231,0.032V93.526z"></path>
						<path fill="#F99D1C" d="M311.294,93.038c-0.302-0.3-0.67-0.453-1.096-0.453c-0.425,0-0.793,0.153-1.093,0.453
						c-0.3,0.301-0.451,0.668-0.451,1.093c0,0.428,0.151,0.798,0.449,1.099c0.299,0.303,0.667,0.456,1.096,0.456
						c0.426,0,0.794-0.153,1.096-0.456c0.302-0.303,0.455-0.673,0.455-1.099C311.748,93.706,311.595,93.337,311.294,93.038z
						 M310.198,95.417c-0.353,0-0.656-0.127-0.901-0.376c-0.246-0.249-0.371-0.553-0.371-0.909c0-0.348,0.125-0.652,0.371-0.9
						c0.248-0.249,0.55-0.375,0.901-0.375c0.35,0,0.653,0.126,0.901,0.375c0.246,0.247,0.371,0.552,0.371,0.9
						c0,0.356-0.125,0.662-0.371,0.909C310.852,95.29,310.549,95.417,310.198,95.417z"></path>
					</g>
				</g>
			</g>
		</g>
	
</switch>
</svg>